# xmcd
#
# Track frame offsets:
# 150
# 17892
# 35675
# 53551
# 76915
# 93569
# 111963
# 124649
# 142223
# 163370
# 181782
# 201079
# 217694
# 235949
# 254262
# 265924
# 283392
# 302420
# 318175
#
# Disc length: 4431 seconds
#
#
# Revision: 4
# Processed by: cddbd v1.5PL3 Copyright (c) Steve Scherf et al.
# Submitted via: FreeRIP 2.70 
#
DISCID=0e114d13
DTITLE=Cher - Greatest Hits
DYEAR=1900
DGENRE=Pop
TTITLE0=All Or Nothing
TTITLE1=Walking in Memphis
TTITLE2=Believe
TTITLE3=The Sun Ain't Gonna Shine Anymore
TTITLE4=Strong Enough
TTITLE5=Just Like Jesse James
TTITLE6=The Shoop Shoop Song
TTITLE7=The Power
TTITLE8=Love And Understanding
TTITLE9=One By One
TTITLE10=Dov'e L'amore
TTITLE11=I Founf Someone
TTITLE12=Save Up All Your Tears
TTITLE13=After All (feat Peter Cetera)
TTITLE14=Gypsys, Tramps And Thieves
TTITLE15=We All Sleep Alone
TTITLE16=If I Could Turn Back Time
TTITLE17=Could've Been You
TTITLE18=I Got You Babe (feat Sonny)
EXTD=
EXTT0=
EXTT1=
EXTT2=
EXTT3=
EXTT4=
EXTT5=
EXTT6=
EXTT7=
EXTT8=
EXTT9=
EXTT10=
EXTT11=
EXTT12=
EXTT13=
EXTT14=
EXTT15=
EXTT16=
EXTT17=
EXTT18=
PLAYORDER=
